<mxfile host="Electron" modified="2024-02-20T19:41:51.567Z" agent="Mozilla/5.0 (Windows NT 10.0; Win64; x64) AppleWebKit/537.36 (KHTML, like Gecko) draw.io/23.0.2 Chrome/120.0.6099.109 Electron/28.1.0 Safari/537.36" etag="iAaGK2STmppVAhxXB9iI" version="23.0.2" type="device">
  <diagram name="Page-1" id="slzfVJ9fmm8WVrPu7Z31">
    <mxGraphModel dx="2206" dy="1314" grid="1" gridSize="10" guides="1" tooltips="1" connect="1" arrows="1" fold="1" page="1" pageScale="1" pageWidth="850" pageHeight="1400" math="0" shadow="0">
      <root>
        <mxCell id="0" />
        <mxCell id="1" parent="0" />
        <mxCell id="sC9t2IjfrVBLqTVqZmDB-1" value="" style="rounded=0;whiteSpace=wrap;html=1;sketch=1;hachureGap=4;jiggle=2;curveFitting=1;fontFamily=Architects Daughter;fontSource=https%3A%2F%2Ffonts.googleapis.com%2Fcss%3Ffamily%3DArchitects%2BDaughter;fontSize=20;" vertex="1" parent="1">
          <mxGeometry x="40" y="40" width="770" height="1220" as="geometry" />
        </mxCell>
        <mxCell id="sC9t2IjfrVBLqTVqZmDB-2" value="&#xa;Lorem ipsum dolor sit amet, consectetur adipiscing elit, sed do eiusmod &#xa;tempor incididunt ut labore et dolore magna aliqua. Ut enim ad minim &#xa;veniam, quis nostrud exercitation ullamco laboris nisi ut aliquip ex ea &#xa;commodo consequat. Duis aute irure dolor in reprehenderit in voluptate &#xa;velit esse cillum dolore eu fugiat nulla pariatur. Excepteur sint &#xa;occaecat cupidatat non proident, sunt in culpa qui officia deserunt &#xa;mollit anim id est laborum.&#xa;&#xa;" style="rounded=0;whiteSpace=wrap;html=1;sketch=1;hachureGap=4;jiggle=2;curveFitting=1;fontFamily=Architects Daughter;fontSource=https%3A%2F%2Ffonts.googleapis.com%2Fcss%3Ffamily%3DArchitects%2BDaughter;fontSize=20;strokeColor=none;align=left;" vertex="1" parent="1">
          <mxGeometry x="80" y="170" width="660" height="260" as="geometry" />
        </mxCell>
        <mxCell id="sC9t2IjfrVBLqTVqZmDB-3" value="&#xa;Lorem ipsum dolor sit amet, consectetur adipiscing elit, sed do eiusmod &#xa;tempor incididunt ut labore et dolore magna aliqua. Ut enim ad minim &#xa;veniam, quis nostrud exercitation ullamco laboris nisi ut aliquip ex ea &#xa;commodo consequat. Duis aute irure dolor in reprehenderit in voluptate &#xa;velit esse cillum dolore eu fugiat nulla pariatur. Excepteur sint &#xa;occaecat cupidatat non proident, sunt in culpa qui officia deserunt &#xa;mollit anim id est laborum.&#xa;&#xa;" style="rounded=0;whiteSpace=wrap;html=1;sketch=1;hachureGap=4;jiggle=2;curveFitting=1;fontFamily=Architects Daughter;fontSource=https%3A%2F%2Ffonts.googleapis.com%2Fcss%3Ffamily%3DArchitects%2BDaughter;fontSize=20;strokeColor=none;align=left;" vertex="1" parent="1">
          <mxGeometry x="80" y="450" width="660" height="260" as="geometry" />
        </mxCell>
        <mxCell id="sC9t2IjfrVBLqTVqZmDB-4" value="&#xa;Lorem ipsum dolor sit amet, consectetur adipiscing elit, sed do eiusmod &#xa;tempor incididunt ut labore et dolore magna aliqua. Ut enim ad minim &#xa;veniam, quis nostrud exercitation ullamco laboris nisi ut aliquip ex ea &#xa;commodo consequat. Duis aute irure dolor in reprehenderit in voluptate &#xa;velit esse cillum dolore eu fugiat nulla pariatur. Excepteur sint &#xa;occaecat cupidatat non proident, sunt in culpa qui officia deserunt &#xa;mollit anim id est laborum.&#xa;&#xa;" style="rounded=0;whiteSpace=wrap;html=1;sketch=1;hachureGap=4;jiggle=2;curveFitting=1;fontFamily=Architects Daughter;fontSource=https%3A%2F%2Ffonts.googleapis.com%2Fcss%3Ffamily%3DArchitects%2BDaughter;fontSize=20;strokeColor=none;align=left;" vertex="1" parent="1">
          <mxGeometry x="80" y="750" width="660" height="260" as="geometry" />
        </mxCell>
        <mxCell id="sC9t2IjfrVBLqTVqZmDB-5" value="Lorem" style="rounded=0;whiteSpace=wrap;html=1;sketch=1;hachureGap=4;jiggle=2;curveFitting=1;fontFamily=Architects Daughter;fontSource=https%3A%2F%2Ffonts.googleapis.com%2Fcss%3Ffamily%3DArchitects%2BDaughter;fontSize=30;align=left;strokeColor=none;" vertex="1" parent="1">
          <mxGeometry x="80" y="120" width="120" height="60" as="geometry" />
        </mxCell>
        <mxCell id="sC9t2IjfrVBLqTVqZmDB-6" value="Lorem" style="rounded=0;whiteSpace=wrap;html=1;sketch=1;hachureGap=4;jiggle=2;curveFitting=1;fontFamily=Architects Daughter;fontSource=https%3A%2F%2Ffonts.googleapis.com%2Fcss%3Ffamily%3DArchitects%2BDaughter;fontSize=30;align=left;strokeColor=none;" vertex="1" parent="1">
          <mxGeometry x="80" y="400" width="120" height="60" as="geometry" />
        </mxCell>
        <mxCell id="sC9t2IjfrVBLqTVqZmDB-7" value="Lorem" style="rounded=0;whiteSpace=wrap;html=1;sketch=1;hachureGap=4;jiggle=2;curveFitting=1;fontFamily=Architects Daughter;fontSource=https%3A%2F%2Ffonts.googleapis.com%2Fcss%3Ffamily%3DArchitects%2BDaughter;fontSize=30;align=left;strokeColor=none;" vertex="1" parent="1">
          <mxGeometry x="80" y="700" width="120" height="60" as="geometry" />
        </mxCell>
      </root>
    </mxGraphModel>
  </diagram>
</mxfile>
